<?xml version="1.0" encoding="utf-8"?>
<!-- Svg Vector Icons : http://www.onlinewebfonts.com/icon -->
<!DOCTYPE svg PUBLIC "-//W3C//DTD SVG 1.1//EN" "http://www.w3.org/Graphics/SVG/1.1/DTD/svg11.dtd">
<svg version="1.1" xmlns="http://www.w3.org/2000/svg" xmlns:xlink="http://www.w3.org/1999/xlink" x="0px" y="0px" viewBox="0 0 1000 1000" enable-background="new 0 0 1000 1000" xml:space="preserve">
<metadata> Svg Vector Icons : http://www.onlinewebfonts.com/icon </metadata>
<g><path fill="#FFF" d="M875.2,52.8H124.8C61,52.8,10,103.8,10,167.6v490c0,63.8,51,114.8,114.8,114.8h87.4V867v5.5c9.1,36.4,40.1,74.7,91.1,74.7c23.7,0,47.4-7.3,71-23.7l167.6-151.2h333.3c63.8,0,114.8-51,114.8-114.8v-490C990,103.8,939,52.8,875.2,52.8z M303.3,892.5c-20,0-31-16.4-34.6-29.1V715.9H124.8c-32.8,0-58.3-25.5-58.3-58.3v-490c0-32.8,25.5-58.3,58.3-58.3h750.5c32.8,0,58.3,25.5,58.3,58.3v490c0,32.8-25.5,58.3-58.3,58.3H521.9L343.3,878C327,887.1,314.2,892.5,303.3,892.5z"/><path fill="#FFF" d="M762.3,491.8c52.8,0,96.5-43.7,96.5-96.5c0-52.8-43.7-96.5-96.5-96.5c-52.8,0-96.5,43.7-96.5,96.5C665.8,448.1,709.5,491.8,762.3,491.8z M705.8,395.3c0-32.8,25.5-58.3,58.3-58.3s58.3,25.5,58.3,58.3s-25.5,58.3-58.3,58.3S705.8,426.2,705.8,395.3z"/><path fill="#FFF" d="M596.5,395.3c0-52.8-43.7-96.5-96.5-96.5c-52.8,0-96.5,43.7-96.5,96.5c0,52.8,43.7,96.5,96.5,96.5C552.8,491.8,596.5,448.1,596.5,395.3z M558.3,395.3c0,32.8-25.5,58.3-58.3,58.3c-32.8,0-58.3-25.5-58.3-58.3S467.2,337,500,337C532.8,337,558.3,362.5,558.3,395.3z"/><path fill="#FFF" d="M237.7,298.7c-52.8,0-96.5,43.7-96.5,96.5c0,52.8,43.7,96.5,96.5,96.5s96.5-43.7,96.5-96.5C334.2,342.4,290.5,298.7,237.7,298.7z M296,395.3c0,32.8-25.5,58.3-58.3,58.3s-58.3-25.5-58.3-58.3s25.5-58.3,58.3-58.3C268.7,337,296,362.5,296,395.3z"/></g>
</svg>