<?xml version="1.0" encoding="utf-8"?>
<!-- Svg Vector Icons : http://www.onlinewebfonts.com/icon -->
<!DOCTYPE svg PUBLIC "-//W3C//DTD SVG 1.1//EN" "http://www.w3.org/Graphics/SVG/1.1/DTD/svg11.dtd">
<svg version="1.1" xmlns="http://www.w3.org/2000/svg" xmlns:xlink="http://www.w3.org/1999/xlink" x="0px" y="0px" viewBox="0 0 1000 1000" enable-background="new 0 0 1000 1000" xml:space="preserve">
<metadata> Svg Vector Icons : http://www.onlinewebfonts.com/icon </metadata>
<g><path d="M163.8,393.6c45.2-76.8,37.5-129.9,37.1-131.9c-2.6-14.3,2.8-28.8,14-37.9c11.1-8.9,26.8-10.7,39.3-4.9c2.7,1.2,66.2,30.8,90.6,117.9c3.3,11.9,6.2,24.6,8.6,38c3.7-6.9,6.8-13.2,9.4-18.9c60.8-134.3,33.6-292.7,32.5-299.4c-2.6-13.2,1.9-27.1,11.8-36.3c9.7-9.1,23.7-12.4,36.4-8.8c7.9,2.3,193.2,59.3,237,299.1c14.5,79.6,7.1,154-1.5,201.9c10.3-10.3,20-23,29.8-38.8C732,436,749.8,367.9,750,367.1c4-15.4,16.7-26.8,32.4-28.9c15.7-1.6,30.7,6.1,38.1,19.7c2.9,5.3,71.6,130.8,71.6,248.7c0,222.1-163.5,383.3-388.8,383.3c-229.1,0-395.4-161.2-395.4-383.3C107.9,515.1,120.4,467.2,163.8,393.6z"/></g>
</svg>